<?xml version="1.0" encoding="utf-8"?>
<!-- Generator: Adobe Illustrator 26.1.0, SVG Export Plug-In . SVG Version: 6.00 Build 0)  -->
<svg version="1.1" id="Calque_5" xmlns="http://www.w3.org/2000/svg" xmlns:xlink="http://www.w3.org/1999/xlink" x="0px" y="0px"
	 viewBox="0 0 415.8 145.4" style="enable-background:new 0 0 415.8 145.4;" xml:space="preserve">
<style type="text/css">
	.st0{fill:#FFFFFF;stroke:#FFFFFF;stroke-width:2.52;stroke-miterlimit:10;}
	.st1{fill:#FFFFFF;}
	.st2{opacity:0.8;}
</style>
<path class="st0" d="M295.4,87.4c5.5,5.1,12.1,7.7,19.8,7.7c8.2,0,15.2-2.9,21-8.8c0.7-0.8,1.4-1.5,2.1-2.3l6.2,2.3
	c-1.1,1.6-2.4,3.1-3.9,4.6c-7,7.1-15.5,10.7-25.5,10.7c-9.9,0-18.4-3.6-25.4-10.7c-7-7.1-10.5-15.7-10.5-25.8
	c0-10,3.5-18.6,10.5-25.8c7-7.1,15.5-10.7,25.4-10.7c8.5,0,16,2.6,22.3,7.8c1,0.9,2.1,1.9,3.1,2.9c0.4,0.4,0.8,0.8,1.1,1.2l-4.5,4.5
	L295.4,87.4z M332.9,40.8c-5.1-4-11-6-17.8-6c-8.2,0-15.1,2.9-21,8.8s-8.7,13-8.7,21.3c0,6.9,2,12.9,5.9,18.1L332.9,40.8z"/>
<path class="st1" d="M66.1,40.5c-7.1,0-13.2,2.6-18.2,7.6c-5,5.1-7.6,11.3-7.6,18.5c0,5.5,1.5,10.4,4.3,14.6l35.8-36.3
	C76.3,42,71.5,40.5,66.1,40.5z"/>
<g class="st2">
	<path class="st1" d="M119.8,130.2c0.1,4.3,2.8,6,6,6c2.3,0,3.6-0.4,4.8-0.9l0.5,2.3c-1.1,0.5-3,1.1-5.8,1.1c-5.3,0-8.5-3.5-8.5-8.8
		c0-5.2,3.1-9.4,8.1-9.4c5.7,0,7.2,5,7.2,8.2c0,0.6-0.1,1.1-0.1,1.5L119.8,130.2L119.8,130.2z M129,128c0-2-0.8-5.1-4.4-5.1
		c-3.2,0-4.6,2.9-4.8,5.1H129z M129.8,113.5l-4.4,5.1h-2.3l3.2-5.1H129.8z"/>
	<path class="st1" d="M150.8,112.8v21c0,1.5,0,3.3,0.1,4.5h-2.8l-0.1-3h-0.1c-1,1.9-3.1,3.4-5.9,3.4c-4.2,0-7.4-3.6-7.4-8.8
		c0-5.8,3.6-9.3,7.8-9.3c2.7,0,4.4,1.3,5.2,2.7h0.1v-10.4H150.8z M147.7,128c0-0.4,0-0.9-0.1-1.3c-0.5-2-2.2-3.7-4.6-3.7
		c-3.3,0-5.2,2.9-5.2,6.7c0,3.5,1.7,6.4,5.1,6.4c2.1,0,4.1-1.4,4.6-3.8c0.1-0.4,0.1-0.9,0.1-1.4L147.7,128L147.7,128z"/>
	<path class="st1" d="M159.4,116.1c0,1.1-0.8,1.9-2,1.9c-1.1,0-1.9-0.9-1.9-1.9c0-1.1,0.8-2,2-2C158.7,114.1,159.4,115,159.4,116.1z
		 M155.9,138.3V121h3.2v17.4H155.9z"/>
	<path class="st1" d="M168,116v5h4.5v2.4H168v9.4c0,2.1,0.6,3.4,2.4,3.4c0.8,0,1.4-0.1,1.8-0.2l0.1,2.4c-0.6,0.2-1.6,0.4-2.8,0.4
		c-1.5,0-2.7-0.5-3.4-1.3c-0.9-0.9-1.2-2.5-1.2-4.5v-9.5h-2.7V121h2.7v-4.2L168,116z"/>
	<path class="st1" d="M177.4,130.2c0.1,4.3,2.8,6,6,6c2.3,0,3.6-0.4,4.8-0.9l0.5,2.3c-1.1,0.5-3,1.1-5.8,1.1c-5.4,0-8.5-3.5-8.5-8.8
		c0-5.2,3.1-9.4,8.1-9.4c5.7,0,7.2,5,7.2,8.2c0,0.6-0.1,1.1-0.1,1.5L177.4,130.2L177.4,130.2z M186.7,128c0-2-0.8-5.1-4.4-5.1
		c-3.2,0-4.6,2.9-4.8,5.1H186.7z"/>
	<path class="st1" d="M207,133.6c0,1.8,0,3.4,0.1,4.7h-2.8l-0.2-2.8h-0.1c-0.8,1.4-2.7,3.2-5.7,3.2c-2.7,0-6-1.5-6-7.6V121h3.2v9.6
		c0,3.3,1,5.5,3.9,5.5c2.1,0,3.6-1.5,4.2-2.9c0.2-0.5,0.3-1,0.3-1.6V121h3.2L207,133.6L207,133.6z"/>
	<path class="st1" d="M212.1,126.4c0-2.1,0-3.8-0.1-5.4h2.8l0.1,3.4h0.1c0.8-2.3,2.7-3.8,4.8-3.8c0.4,0,0.6,0,0.9,0.1v3
		c-0.3-0.1-0.6-0.1-1.1-0.1c-2.2,0-3.8,1.7-4.2,4.1c-0.1,0.4-0.1,0.9-0.1,1.5v9.3h-3.1L212.1,126.4L212.1,126.4z"/>
	<path class="st1" d="M246.1,112.8v21c0,1.5,0,3.3,0.1,4.5h-2.8l-0.1-3h-0.1c-1,1.9-3.1,3.4-5.9,3.4c-4.2,0-7.4-3.6-7.4-8.8
		c0-5.8,3.6-9.3,7.8-9.3c2.7,0,4.4,1.3,5.2,2.7h0.1v-10.4H246.1z M242.9,128c0-0.4,0-0.9-0.1-1.3c-0.5-2-2.2-3.7-4.6-3.7
		c-3.3,0-5.2,2.9-5.2,6.7c0,3.5,1.7,6.4,5.1,6.4c2.1,0,4.1-1.4,4.6-3.8c0.1-0.4,0.1-0.9,0.1-1.4L242.9,128L242.9,128z"/>
	<path class="st1" d="M252.9,130.2c0.1,4.3,2.8,6,6,6c2.3,0,3.6-0.4,4.8-0.9l0.5,2.3c-1.1,0.5-3,1.1-5.8,1.1c-5.4,0-8.5-3.5-8.5-8.8
		c0-5.2,3.1-9.4,8.1-9.4c5.7,0,7.2,5,7.2,8.2c0,0.6-0.1,1.1-0.1,1.5L252.9,130.2L252.9,130.2z M262.2,128c0-2-0.8-5.1-4.4-5.1
		c-3.2,0-4.6,2.9-4.8,5.1H262.2z"/>
	<path class="st1" d="M276.4,126.6c0-2.2-0.1-4-0.1-5.7h2.8l0.1,3h0.1c1.3-2.1,3.3-3.4,6.2-3.4c4.2,0,7.4,3.6,7.4,8.8
		c0,6.2-3.8,9.3-7.9,9.3c-2.3,0-4.3-1-5.4-2.7h-0.1v9.4h-3.1L276.4,126.6L276.4,126.6z M279.6,131.3c0,0.5,0.1,0.9,0.1,1.3
		c0.6,2.2,2.5,3.7,4.7,3.7c3.3,0,5.3-2.7,5.3-6.7c0-3.5-1.8-6.5-5.2-6.5c-2.1,0-4.2,1.5-4.8,3.9c-0.1,0.4-0.2,0.9-0.2,1.3
		L279.6,131.3L279.6,131.3z"/>
	<path class="st1" d="M296.7,126.4c0-2.1,0-3.8-0.1-5.4h2.8l0.1,3.4h0.1c0.8-2.3,2.7-3.8,4.8-3.8c0.4,0,0.6,0,0.9,0.1v3
		c-0.3-0.1-0.6-0.1-1.1-0.1c-2.2,0-3.8,1.7-4.2,4.1c-0.1,0.4-0.1,0.9-0.1,1.5v9.3h-3.1L296.7,126.4L296.7,126.4z"/>
	<path class="st1" d="M323.6,129.5c0,6.4-4.5,9.2-8.6,9.2c-4.7,0-8.3-3.4-8.3-8.9c0-5.8,3.8-9.2,8.6-9.2
		C320.3,120.6,323.6,124.2,323.6,129.5z M309.9,129.7c0,3.8,2.2,6.7,5.3,6.7c3,0,5.3-2.8,5.3-6.7c0-2.9-1.5-6.7-5.2-6.7
		C311.5,122.9,309.9,126.4,309.9,129.7z"/>
	<path class="st1" d="M328.4,121l2.5,3.7c0.6,1,1.2,1.9,1.8,2.8h0.1c0.6-1,1.1-1.9,1.7-2.9l2.4-3.7h3.4l-5.9,8.4l6.1,9H337l-2.5-3.9
		c-0.7-1-1.3-2-1.9-3h-0.1c-0.6,1-1.2,2-1.8,3l-2.5,3.9h-3.5l6.2-8.9l-5.9-8.5C324.9,121,328.4,121,328.4,121z"/>
	<path class="st1" d="M346.9,116.1c0,1.1-0.8,1.9-2,1.9c-1.1,0-1.9-0.9-1.9-1.9c0-1.1,0.8-2,2-2C346.2,114.1,346.9,115,346.9,116.1z
		 M343.4,138.3V121h3.2v17.4H343.4z"/>
	<path class="st1" d="M351.7,125.7c0-1.8,0-3.3-0.1-4.7h2.8l0.1,2.8h0.1c1-1.7,2.6-3.2,5.5-3.2c2.4,0,4.2,1.4,4.9,3.5h0.1
		c0.5-1,1.2-1.7,1.9-2.3c1-0.8,2.2-1.2,3.8-1.2c2.3,0,5.7,1.5,5.7,7.5v10.2h-3.1v-9.8c0-3.3-1.2-5.3-3.8-5.3c-1.8,0-3.2,1.3-3.7,2.9
		c-0.1,0.4-0.2,1-0.2,1.6v10.7h-3.1v-10.4c0-2.8-1.2-4.8-3.6-4.8c-2,0-3.4,1.6-3.9,3.2c-0.2,0.5-0.2,1-0.2,1.5v10.5h-3.1
		L351.7,125.7L351.7,125.7z"/>
	<path class="st1" d="M385,116.1c0,1.1-0.8,1.9-2,1.9c-1.1,0-1.9-0.9-1.9-1.9c0-1.1,0.8-2,2-2C384.2,114.1,385,115,385,116.1z
		 M381.4,138.3V121h3.2v17.4H381.4z"/>
	<path class="st1" d="M393.5,116v5h4.5v2.4h-4.5v9.4c0,2.1,0.6,3.4,2.4,3.4c0.8,0,1.4-0.1,1.8-0.2l0.1,2.4c-0.6,0.2-1.6,0.4-2.8,0.4
		c-1.5,0-2.6-0.5-3.4-1.3c-0.9-0.9-1.2-2.5-1.2-4.5v-9.5h-2.7V121h2.7v-4.2L393.5,116z"/>
	<path class="st1" d="M403,130.2c0.1,4.3,2.8,6,6,6c2.3,0,3.6-0.4,4.8-0.9l0.5,2.3c-1.1,0.5-3,1.1-5.8,1.1c-5.4,0-8.5-3.5-8.5-8.8
		c0-5.2,3.1-9.4,8.1-9.4c5.7,0,7.2,5,7.2,8.2c0,0.6-0.1,1.1-0.1,1.5L403,130.2L403,130.2z M412.2,128c0-2-0.8-5.1-4.4-5.1
		c-3.2,0-4.6,2.9-4.8,5.1H412.2z M413,113.5l-4.4,5.1h-2.3l3.2-5.1H413z"/>
</g>
<path class="st1" d="M185.9,1.8v98.4h-9V88c-3.8,4.7-8.1,8.2-12.9,10.5c-4.8,2.3-10,3.5-15.6,3.5c-10.1,0-18.6-3.6-25.7-10.9
	C115.5,83.8,112,75,112,64.5c0-10.2,3.6-19,10.8-26.2c7.2-7.3,15.8-10.9,25.9-10.9c5.8,0,11.1,1.2,15.8,3.7s8.9,6.2,12.4,11.2V1.8
	H185.9z M149.4,36.2c-5.1,0-9.8,1.2-14.1,3.8s-7.7,6-10.3,10.5c-2.5,4.5-3.8,9.3-3.8,14.3c0,5,1.3,9.8,3.8,14.3s6,8.1,10.3,10.7
	c4.3,2.5,9,3.8,13.9,3.8c5,0,9.7-1.3,14.2-3.8c4.5-2.5,7.9-5.9,10.3-10.2c2.4-4.3,3.6-9.2,3.6-14.5c0-8.2-2.7-15.1-8.1-20.6
	C164,39,157.3,36.2,149.4,36.2z"/>
<path class="st1" d="M122.7,91.1C115.6,83.8,112,75,112,64.5c0-10.2,3.6-19,10.8-26.2c0.4-0.5,0.9-0.9,1.3-1.3
	C113.3,15.7,91.2,1,65.6,1C29.4,1,0,30.4,0,66.6c0,36.2,29.4,65.6,65.6,65.6c26.6,0,49.5-15.8,59.8-38.6
	C124.4,92.9,123.5,92,122.7,91.1z M64.6,11.1h13.1L61,24h-7.5L64.6,11.1z M93.6,86.6c-1.1,1.5-2.3,2.9-3.6,4.3
	c-6.6,6.7-14.6,10-23.9,10c-9.3,0-17.3-3.4-23.9-10c-6.6-6.7-9.9-14.8-9.9-24.2c0-9.4,3.3-17.5,9.9-24.2s14.6-10,23.9-10
	c8,0,15,2.5,21,7.3c1,0.8,2,1.8,2.9,2.7c0.4,0.4,0.7,0.8,1.1,1.1l0.7,0.8l-42,42.5c4.6,3.9,10.1,5.9,16.3,5.9
	c7.1,0,13.2-2.6,18.3-7.7c0.7-0.7,1.3-1.3,1.8-2l0.5-0.6l7.8,2.8L93.6,86.6z"/>
<path class="st1" d="M209.8,0c2.1,0,3.9,0.7,5.3,2.2c1.5,1.5,2.2,3.3,2.2,5.3c0,2.1-0.7,3.8-2.2,5.3s-3.2,2.2-5.3,2.2
	c-2,0-3.8-0.7-5.3-2.2s-2.2-3.2-2.2-5.3c0-2.1,0.7-3.9,2.2-5.3S207.7,0,209.8,0z M205.2,29.2h9.1v71h-9.1V29.2z"/>
<path class="st1" d="M269,37l-5.9,6.1c-4.9-4.7-9.7-7.1-14.3-7.1c-3,0-5.5,1-7.6,2.9c-2.1,2-3.2,4.2-3.2,6.8c0,2.3,0.9,4.5,2.6,6.6
	c1.7,2.1,5.4,4.6,11,7.5c6.8,3.5,11.4,6.9,13.9,10.2c2.4,3.3,3.6,7,3.6,11.2c0,5.8-2,10.8-6.1,14.8c-4.1,4-9.2,6.1-15.4,6.1
	c-4.1,0-8-0.9-11.7-2.7c-3.7-1.8-6.8-4.2-9.2-7.4l5.7-6.5c4.7,5.3,9.6,7.9,14.9,7.9c3.7,0,6.8-1.2,9.3-3.5c2.6-2.3,3.9-5.1,3.9-8.3
	c0-2.6-0.9-4.9-2.5-7c-1.7-2-5.5-4.5-11.5-7.6c-6.4-3.3-10.8-6.6-13.1-9.8s-3.5-6.9-3.5-11c0-5.4,1.8-9.9,5.5-13.4
	c3.7-3.6,8.3-5.4,13.9-5.4C255.8,27.4,262.4,30.6,269,37z"/>
<path class="st1" d="M353.9,29.2h9.1V42c3.6-4.9,7.7-8.5,12.1-10.9c4.4-2.4,9.3-3.6,14.5-3.6c5.3,0,10,1.4,14.1,4
	c4.1,2.7,7.1,6.3,9.1,10.9s2.9,11.7,2.9,21.3v36.5h-9.1V66.4c0-8.2-0.3-13.6-1-16.4c-1.1-4.7-3.1-8.2-6.1-10.6s-6.9-3.6-11.8-3.6
	c-5.5,0-10.5,1.8-14.9,5.5c-4.4,3.7-7.2,8.2-8.6,13.6c-0.9,3.5-1.3,10-1.3,19.3v26h-9.1L353.9,29.2L353.9,29.2z"/>
</svg>
