<?xml version="1.0" encoding="utf-8"?>
<!-- Generator: Adobe Illustrator 26.1.0, SVG Export Plug-In . SVG Version: 6.00 Build 0)  -->
<svg version="1.1" id="a" xmlns="http://www.w3.org/2000/svg" xmlns:xlink="http://www.w3.org/1999/xlink" x="0px" y="0px"
	 viewBox="0 0 32 32" style="enable-background:new 0 0 32 32;" xml:space="preserve">
<style type="text/css">
	.st0{fill:#FF421A;}
</style>
<path class="st0" d="M23.1,30.2c-2.5,1.3-5.1,1.9-8.2,1.9c-7.6,0-14-5.5-14-14.4c0-9.5,6.6-17.7,16.9-17.7c8,0,13.4,5.6,13.4,13.3
	c0,6.9-3.9,11-8.2,11c-1.9,0-3.6-1.2-3.4-4.1h-0.2c-1.6,2.7-3.7,4.1-6.5,4.1s-5-2.2-5-5.8c0-5.7,4.5-10.9,11-10.9c2,0,3.7,0.4,5,1
	l-1.6,8.4c-0.7,3.5-0.1,5.1,1.4,5.2c2.4,0,5-3.1,5-8.4c0-6.7-4-11.5-11.2-11.5C9.9,2.1,3.5,8,3.5,17.4c0,7.7,5,12.5,11.9,12.5
	c2.6,0,5.1-0.5,7-1.6L23.1,30.2L23.1,30.2L23.1,30.2z M20.5,10.3c-0.5-0.1-1.2-0.3-2.3-0.3c-4.1,0-7.4,3.8-7.4,8.3
	c0,2,1,3.5,3.1,3.5c2.7,0,5.1-3.4,5.6-6.3C19.5,15.5,20.5,10.3,20.5,10.3z"/>
</svg>
