<?xml version="1.0" encoding="UTF-8"?><svg id="a" xmlns="http://www.w3.org/2000/svg" viewBox="0 0 32 32"><defs><style>.b{fill:#fff;}</style></defs><path class="b" d="M23.06,30.22c-2.55,1.34-5.12,1.85-8.22,1.85-7.57,0-13.99-5.54-13.99-14.4C.87,8.14,7.47-.06,17.72-.06,25.74-.06,31.15,5.56,31.15,13.28c0,6.93-3.87,11-8.22,11-1.85,0-3.56-1.25-3.41-4.07h-.18c-1.63,2.73-3.74,4.07-6.51,4.07s-4.99-2.18-4.99-5.83c0-5.72,4.53-10.95,10.95-10.95,1.98,0,3.74,.42,4.95,.97l-1.56,8.36c-.7,3.52-.13,5.12,1.39,5.17,2.35,.04,4.99-3.1,4.99-8.44,0-6.69-4.02-11.5-11.17-11.5-7.52,0-13.85,5.96-13.85,15.33,0,7.72,5.04,12.47,11.88,12.47,2.64,0,5.08-.55,6.97-1.61l.75,1.98h-.07Zm-2.55-19.95c-.46-.13-1.25-.33-2.31-.33-4.07,0-7.35,3.83-7.35,8.31,0,2.02,1.01,3.52,3.06,3.52,2.68,0,5.12-3.41,5.63-6.29l.97-5.21Z"/></svg>