<?xml version="1.0" encoding="utf-8"?>
<!-- Generator: Adobe Illustrator 26.1.0, SVG Export Plug-In . SVG Version: 6.00 Build 0)  -->
<svg version="1.1" id="Calque_1" xmlns="http://www.w3.org/2000/svg" xmlns:xlink="http://www.w3.org/1999/xlink" x="0px" y="0px"
	 viewBox="0 0 22.1 32" style="enable-background:new 0 0 22.1 32;" xml:space="preserve">
<style type="text/css">
	.st0{fill:#FF421A;}
</style>
<g id="a">
</g>
<g id="b">
	<g id="c">
		<path class="st0" d="M15.6,1c4.8,2.1,8.1,8.1,5.7,13.8c-1.4,3.4-3.2,6.6-5.2,9.7c-1.4,2.2-3,4.4-4.5,6.6c-0.2,0.2-0.4,0.4-0.6,0.7
			c-0.2-0.2-0.3-0.3-0.4-0.5c-3.3-4.6-6.5-9.4-9-14.6c-0.5-1-0.9-2-1.2-3.1C-1,9.4,1,4.3,5.1,1.8c1.3-0.8,2.7-1.4,4.3-1.6
			C11.2,0,13.2-0.3,15.6,1L15.6,1z M11,7.1c-2.2,0-4,1.8-4,4c0,2.2,1.8,3.9,4,3.9c2.2,0,4-1.8,4-4S13.2,7.1,11,7.1L11,7.1z"/>
	</g>
</g>
</svg>
