<?xml version="1.0" encoding="UTF-8"?><svg xmlns="http://www.w3.org/2000/svg" viewBox="0 0 22.11 31.96"><defs><style>.d{fill:#fff;}</style></defs><g id="a"/><g id="b"><g id="c"><path class="d" d="M15.62,1.05c4.84,2.08,8.07,8.06,5.68,13.83-1.42,3.42-3.18,6.64-5.17,9.73-1.44,2.24-2.98,4.42-4.48,6.63-.16,.23-.35,.44-.57,.72-.18-.19-.34-.33-.45-.49-3.34-4.64-6.53-9.38-8.96-14.58-.47-1-.87-2.04-1.21-3.09C-.96,9.4,1.02,4.3,5.1,1.77,6.42,.95,7.84,.36,9.39,.17c1.8-.22,3.82-.46,6.24,.88Zm-4.59,6.07c-2.18,0-3.98,1.8-3.96,3.98,.01,2.19,1.8,3.95,4,3.94,2.21,0,3.97-1.78,3.96-3.97-.01-2.19-1.79-3.95-3.99-3.95Z"/></g></g></svg>