<?xml version="1.0" encoding="utf-8"?>
<!-- Generator: Adobe Illustrator 26.1.0, SVG Export Plug-In . SVG Version: 6.00 Build 0)  -->
<svg version="1.1" id="a" xmlns="http://www.w3.org/2000/svg" xmlns:xlink="http://www.w3.org/1999/xlink" x="0px" y="0px"
	 viewBox="0 0 32 32" style="enable-background:new 0 0 32 32;" xml:space="preserve">
<style type="text/css">
	.st0{fill:#FF421A;}
</style>
<path class="st0" d="M22.4,31.8c-0.3-0.1-0.5-0.1-0.7-0.2c0,0-0.1,0-0.1-0.1c-0.8-0.4-1.6-0.8-2.4-1.2c-4.7-2.4-8.7-5.8-11.8-10.1
	c-2.4-3.3-4.2-7-5.3-11C1.9,8.8,1.7,8.2,1.6,7.6c0-0.1,0-0.1,0-0.2c0-0.3,0.1-0.6,0.1-0.8c0.1-0.4,0.1-0.9,0.3-1.3
	C2,5,2.1,4.9,2.2,4.7c0.6-1,1.4-1.8,2.3-2.5c1.2-1,2.6-1.6,4.1-2C8.9,0.1,9.3,0.1,9.6,0c0.4-0.1,0.8,0.2,0.8,0.6
	c0.1,0.4,0.2,0.7,0.2,1.1c0.2,1.2,0.4,2.5,0.6,3.7c0.1,0.9,0.3,1.9,0.4,2.8c0,0.3,0.1,0.5,0.1,0.8c0,0.3-0.1,0.5-0.4,0.6
	c-0.5,0.2-1.1,0.3-1.6,0.4c-0.3,0.1-0.6,0.2-1,0.3c-0.2,0.1-0.3,0.1-0.5,0.2c-0.1,0.1-0.2,0.1-0.2,0.2c0.2,5.1,5.9,12.2,11.9,13.7
	c0.2-0.1,0.3-0.2,0.4-0.4c0.1-0.1,0.1-0.3,0.1-0.4c0.1-0.4,0.2-0.8,0.4-1.1c0-0.1,0.1-0.2,0.2-0.3c0.1-0.1,0.3-0.2,0.4-0.2
	c0.7,0,1.4,0.1,2,0.1s1.3,0.1,2,0.2c1.2,0.1,2.4,0.3,3.5,0.4c0.2,0,0.5,0.1,0.7,0.1c0.3,0.1,0.5,0.3,0.5,0.6c0,0.2,0,0.4,0,0.6
	c0,0.5-0.1,1-0.2,1.5c-0.1,0.7-0.4,1.3-0.6,1.9c-0.1,0.2-0.2,0.3-0.2,0.5c-0.2,0.5-0.5,0.9-0.9,1.3c-0.9,0.9-1.9,1.7-3,2.2
	c-0.5,0.3-1.1,0.5-1.7,0.5c-0.4,0-0.8,0-1.2-0.1C22.5,31.8,22.4,31.8,22.4,31.8L22.4,31.8L22.4,31.8z"/>
</svg>
