<?xml version="1.0" encoding="UTF-8"?><svg id="a" xmlns="http://www.w3.org/2000/svg" viewBox="0 0 32 32"><defs><style>.b{fill:#fff;}</style></defs><path class="b" d="M22.42,31.84c-.26-.06-.5-.12-.74-.18-.05-.01-.1-.03-.15-.06-.79-.39-1.59-.76-2.38-1.17-4.74-2.44-8.68-5.82-11.83-10.12-2.44-3.34-4.19-7.02-5.3-11-.16-.56-.31-1.13-.46-1.7-.02-.06-.01-.14,0-.2,.03-.29,.07-.57,.11-.85,.07-.45,.11-.9,.27-1.33,.07-.19,.18-.36,.29-.53,.63-.96,1.36-1.83,2.26-2.55,1.21-.99,2.58-1.63,4.1-1.95,.35-.07,.7-.12,1.05-.17,.42-.07,.75,.2,.84,.58,.08,.36,.17,.71,.23,1.08,.21,1.22,.41,2.45,.61,3.67,.15,.94,.29,1.88,.43,2.83,.04,.27,.05,.54,.07,.81,.01,.31-.13,.5-.42,.6-.52,.19-1.07,.3-1.6,.42-.33,.08-.65,.17-.97,.27-.16,.05-.31,.14-.46,.23-.09,.05-.16,.14-.21,.23,.17,5.1,5.86,12.18,11.92,13.74,.19-.08,.32-.21,.4-.39,.06-.13,.11-.27,.14-.41,.09-.4,.2-.78,.38-1.15,.05-.11,.12-.21,.19-.31,.11-.14,.26-.2,.44-.19,.67,.05,1.35,.09,2.02,.15,.67,.06,1.34,.12,2.01,.19,1.18,.13,2.35,.26,3.53,.4,.24,.03,.47,.09,.7,.15,.29,.08,.46,.29,.5,.58,.03,.2,.04,.41,.03,.62-.02,.49-.07,.98-.16,1.46-.13,.66-.35,1.29-.65,1.88-.08,.16-.16,.31-.24,.47-.22,.48-.55,.88-.92,1.26-.87,.92-1.87,1.66-3,2.23-.54,.27-1.1,.46-1.7,.51-.4,.03-.79-.01-1.17-.1-.07-.01-.14-.03-.18-.03h0Z"/></svg>