<?xml version="1.0" encoding="utf-8"?>
<!-- Generator: Adobe Illustrator 26.0.2, SVG Export Plug-In . SVG Version: 6.00 Build 0)  -->
<svg version="1.1" id="Calque_1" xmlns="http://www.w3.org/2000/svg" xmlns:xlink="http://www.w3.org/1999/xlink" x="0px" y="0px"
	 viewBox="0 0 708.66 283.46" style="enable-background:new 0 0 708.66 283.46;" xml:space="preserve">
<style type="text/css">
	.st0{fill:#1D1D1B;}
	.st1{fill:#FCC200;}
	.st2{fill:#FFFFFF;}
</style>
<g>
	<path class="st0" d="M427.27,92.01c7.99,5.49,11.91,14.35,11.77,26.57v50.01c0,9.45-4.17,16.01-12.5,19.69
		c-8.33,3.68-20.21,5.52-35.63,5.52c-12.37,0-22.58-2.57-30.63-7.71c-8.06-5.14-12.09-13.75-12.09-25.84
		c0-11.39,3.3-19.93,9.9-25.63c6.6-5.69,15.94-8.54,28.03-8.54c12.5,0,22.92,2.5,31.26,7.5v-10c0-14.17-8.54-21.26-25.63-21.26
		c-6.12,0-12.23,0.94-18.34,2.81c-6.12,1.88-11.19,4.48-15.21,7.81V92.53c3.89-2.5,9.55-4.58,16.98-6.25
		c7.43-1.67,15.11-2.5,23.03-2.5C409.59,83.78,419.28,86.52,427.27,92.01z M411.95,174.84c3.61-1.25,5.42-3.75,5.42-7.5v-20.21
		c-7.09-3.05-14.87-4.58-23.34-4.58c-7.92,0-13.93,1.39-18.02,4.17c-4.1,2.78-6.15,6.95-6.15,12.5c0,5.83,2.33,10.21,6.98,13.13
		c4.65,2.92,10.17,4.38,16.57,4.38C402.16,176.72,408.34,176.09,411.95,174.84z"/>
	<path class="st0" d="M482.49,86.8c8.96-2.01,17.54-3.02,25.74-3.02c14.59,0,25.35,3.06,32.3,9.17
		c6.94,6.12,10.42,15.63,10.42,28.55v69.18h-21.88v-66.27c0-14.59-8.27-21.88-24.8-21.88c-7.92,0-15.49,1.32-22.71,3.96v84.19
		h-21.88V94.61C465.92,91.42,473.53,88.81,482.49,86.8z"/>
</g>
<polygon class="st0" points="63.33,190.37 86.25,185.44 86.25,128.58 136.68,51.68 111.88,51.68 76.25,109.41 39.16,51.68 
	11.02,51.68 63.33,128.37 "/>
<g>
	<polygon class="st0" points="674.93,86.69 674.93,190.68 697.02,190.68 696.81,86.69 	"/>
	<polygon class="st0" points="674.3,56.8 674.3,78.79 697.64,78.79 697.64,61.82 	"/>
</g>
<path class="st0" d="M200.44,90.1v58.48c0,8.89-1.98,15.46-5.94,19.69c-3.96,4.24-10.11,6.35-18.44,6.35
	c-8.33,0-14.48-2.12-18.44-6.35c-3.96-4.24-5.94-10.8-5.94-19.69V86.07H129.8v65.64c0,13.75,4.06,24.21,12.19,31.36
	c8.13,7.16,19.48,10.73,34.07,10.73c14.45,0,25.63-3.57,33.55-10.73c7.92-7.15,11.88-17.61,11.88-31.36V94.63L200.44,90.1z"/>
<polygon class="st0" points="610.54,131.5 658.05,86.07 631.17,86.07 593.04,125.24 593.22,56.29 571.36,60.99 571.36,190.68 
	593.04,190.68 593.04,143.79 635.13,190.68 663.47,190.68 "/>
<path class="st0" d="M324.12,96.9c-9.24-8.89-21.43-13.34-36.57-13.34c-12.5,0-23.23,1.81-32.2,5.42
	c-8.96,3.61-13.44,9.38-13.44,17.3v147.65l21.67-4.66v-61.5c3.89,1.95,8.26,3.4,13.13,4.38c4.86,0.97,9.17,1.46,12.92,1.46
	c15.28,0,27.16-4.79,35.63-14.38c8.47-9.59,12.71-22.57,12.71-38.97C337.98,120.24,333.36,105.8,324.12,96.9z M308.08,165.98
	c-5.07,6.04-12.54,9.07-22.4,9.07c-7.92,0-15.28-2.01-22.09-6.04v-57.93c0-2.64,2.11-4.72,6.35-6.25c4.24-1.53,9.83-2.29,16.78-2.29
	c10.84,0,18.37,3.27,22.61,9.79c4.24,6.53,6.36,15.7,6.36,27.51C315.68,151.22,313.14,159.94,308.08,165.98z"/>
<g>
	<path class="st1" d="M112.45,151.83l-0.44-1.05l0.11-0.06c-1.23-3.17-4.23-8.49-7.72-14.21c-1.21-2.05-2.43-4.09-3.67-6.11
		c-4.05-6.58-8.21-13.1-12.46-19.56c-0.9-2.31-1.05-4.92-1.23-7.54c-0.11-1.31-0.18-2.69-0.51-4.08c-0.3-1.3-0.6-2.59-0.94-3.88
		c-1.3-5.16-2.87-10.27-4.78-15.26c-1.88-5-4.17-9.87-7.05-14.41c-1.43-2.27-3.02-4.45-4.8-6.47l-5.41-5.85l-0.88-0.95l-0.01,1.27
		l-0.02,2.04l-5.8-5.13c-2.17-1.95-4.43-3.84-6.52-5.83c-1.99-2.09-3.71-4.46-5.28-6.89c-0.78-1.22-1.52-2.47-2.17-3.76
		c-0.32-0.64-0.63-1.3-0.88-1.96c-0.24-0.65-0.46-1.37-0.42-1.93l-0.89-0.15c-0.59,2.33-1.11,4.66-1.55,7.02
		c-0.22,1.18-0.41,2.37-0.55,3.58c-0.05,0.44-0.09,0.89-0.13,1.34l-0.61-0.87l-0.97-1.37l-0.4,1.62c-0.57,2.28-0.76,4.5-0.75,6.77
		c0.02,2.26,0.24,4.52,0.7,6.73c0.64,3.22,1.77,6.33,3.28,9.25l-0.25-0.12l-2.08-1.01l0.46,2.22c0.45,2.21,1.26,4.03,2.22,5.88
		c0.97,1.82,2.12,3.51,3.39,5.12c1.28,1.59,2.7,3.06,4.21,4.42c0.5,0.47,1.02,0.9,1.55,1.32l-1.23-0.07l-2.5-0.14l1.43,2.02
		c2.25,3.18,4.73,6,7.37,8.75c2.65,2.72,5.44,5.29,8.39,7.67c2.98,2.35,6.08,4.53,9.29,6.54c1.63,0.96,3.25,1.95,4.93,2.82
		c1.7,0.83,3.29,1.85,5.24,2.42c0.93,0.31,2.04,0.43,2.8,0.58c0.19,0.04,0.3,0.09,0.41,0.15c0.1,0.05,0.2,0.16,0.37,0.35l0.92,1.03
		c1.22,1.39,2.39,2.84,3.52,4.32c2.26,2.96,4.42,6.02,6.52,9.12c0.94,1.39,1.86,2.79,2.78,4.19c4.95,7.88,8.91,14.82,8.99,14.97
		l3.22,4.27l0.11-0.06L112.45,151.83z"/>
</g>
<path class="st2" d="M41.07,30.65c0,1.95,0.21,3.9,0.51,5.82c0.28,1.92,0.71,3.82,1.23,5.68c1,3.74,2.45,7.34,4.15,10.81
	c0.87,1.73,1.77,3.45,2.76,5.12c1.02,1.66,2.09,3.29,3.28,4.84c2.35,3.13,5.25,5.77,8.11,8.48c5.76,5.38,10.92,11.45,15.21,18.11
	c4.3,6.69,7.26,14.04,10.39,21.22l-0.15,0.08c-2.12-3.33-3.95-6.82-5.84-10.24c-1.88-3.43-3.87-6.78-5.97-10.06
	c-4.17-6.57-9-12.71-14.19-18.57c-5.39-5.64-11.17-11.21-14.95-18.29c-1.85-3.52-3.23-7.31-4.08-11.19
	c-0.79-3.89-1.2-7.9-0.63-11.84L41.07,30.65z"/>
</svg>
