<?xml version="1.0" encoding="utf-8"?>
<!-- Generator: Adobe Illustrator 26.1.0, SVG Export Plug-In . SVG Version: 6.00 Build 0)  -->
<svg version="1.1" id="Calque_1" xmlns="http://www.w3.org/2000/svg" xmlns:xlink="http://www.w3.org/1999/xlink" x="0px" y="0px"
	 viewBox="0 0 708.7 283.5" style="enable-background:new 0 0 708.7 283.5;" xml:space="preserve">
<style type="text/css">
	.st0{fill:#FFFFFF;}
	.st1{fill:#FCC200;}
</style>
<g>
	<path class="st0" d="M427.3,92c8,5.5,11.9,14.3,11.8,26.6v50c0,9.4-4.2,16-12.5,19.7c-8.3,3.7-20.2,5.5-35.6,5.5
		c-12.4,0-22.6-2.6-30.6-7.7c-8.1-5.1-12.1-13.8-12.1-25.8c0-11.4,3.3-19.9,9.9-25.6c6.6-5.7,15.9-8.5,28-8.5
		c12.5,0,22.9,2.5,31.3,7.5v-10c0-14.2-8.5-21.3-25.6-21.3c-6.1,0-12.2,0.9-18.3,2.8c-6.1,1.9-11.2,4.5-15.2,7.8V92.5
		c3.9-2.5,9.5-4.6,17-6.2c7.4-1.7,15.1-2.5,23-2.5C409.6,83.8,419.3,86.5,427.3,92z M412,174.8c3.6-1.2,5.4-3.8,5.4-7.5v-20.2
		c-7.1-3.1-14.9-4.6-23.3-4.6c-7.9,0-13.9,1.4-18,4.2c-4.1,2.8-6.1,6.9-6.1,12.5c0,5.8,2.3,10.2,7,13.1c4.6,2.9,10.2,4.4,16.6,4.4
		C402.2,176.7,408.3,176.1,412,174.8z"/>
	<path class="st0" d="M482.5,86.8c9-2,17.5-3,25.7-3c14.6,0,25.3,3.1,32.3,9.2c6.9,6.1,10.4,15.6,10.4,28.5v69.2h-21.9v-66.3
		c0-14.6-8.3-21.9-24.8-21.9c-7.9,0-15.5,1.3-22.7,4v84.2h-21.9V94.6C465.9,91.4,473.5,88.8,482.5,86.8z"/>
</g>
<polygon class="st0" points="63.3,190.4 86.2,185.4 86.2,128.6 136.7,51.7 111.9,51.7 76.2,109.4 39.2,51.7 11,51.7 63.3,128.4 "/>
<g>
	<polygon class="st0" points="674.9,86.7 674.9,190.7 697,190.7 696.8,86.7 	"/>
	<polygon class="st0" points="674.3,56.8 674.3,78.8 697.6,78.8 697.6,61.8 	"/>
</g>
<path class="st0" d="M200.4,90.1v58.5c0,8.9-2,15.5-5.9,19.7c-4,4.2-10.1,6.4-18.4,6.4s-14.5-2.1-18.4-6.4c-4-4.2-5.9-10.8-5.9-19.7
	V86.1h-21.9v65.6c0,13.8,4.1,24.2,12.2,31.4c8.1,7.2,19.5,10.7,34.1,10.7c14.4,0,25.6-3.6,33.6-10.7c7.9-7.1,11.9-17.6,11.9-31.4
	V94.6L200.4,90.1z"/>
<polygon class="st0" points="610.5,131.5 658,86.1 631.2,86.1 593,125.2 593.2,56.3 571.4,61 571.4,190.7 593,190.7 593,143.8 
	635.1,190.7 663.5,190.7 "/>
<path class="st0" d="M324.1,96.9c-9.2-8.9-21.4-13.3-36.6-13.3c-12.5,0-23.2,1.8-32.2,5.4c-9,3.6-13.4,9.4-13.4,17.3v147.6l21.7-4.7
	v-61.5c3.9,1.9,8.3,3.4,13.1,4.4c4.9,1,9.2,1.5,12.9,1.5c15.3,0,27.2-4.8,35.6-14.4c8.5-9.6,12.7-22.6,12.7-39
	C338,120.2,333.4,105.8,324.1,96.9z M308.1,166c-5.1,6-12.5,9.1-22.4,9.1c-7.9,0-15.3-2-22.1-6v-57.9c0-2.6,2.1-4.7,6.4-6.2
	c4.2-1.5,9.8-2.3,16.8-2.3c10.8,0,18.4,3.3,22.6,9.8c4.2,6.5,6.4,15.7,6.4,27.5C315.7,151.2,313.1,159.9,308.1,166z"/>
<g>
	<path class="st1" d="M112.4,151.8l-0.4-1.1l0.1-0.1c-1.2-3.2-4.2-8.5-7.7-14.2c-1.2-2.1-2.4-4.1-3.7-6.1
		c-4.1-6.6-8.2-13.1-12.5-19.6c-0.9-2.3-1.1-4.9-1.2-7.5c-0.1-1.3-0.2-2.7-0.5-4.1c-0.3-1.3-0.6-2.6-0.9-3.9
		c-1.3-5.2-2.9-10.3-4.8-15.3c-1.9-5-4.2-9.9-7.1-14.4c-1.4-2.3-3-4.5-4.8-6.5l-5.4-5.8l-0.9-1l0,1.3l0,2l-5.8-5.1
		c-2.2-2-4.4-3.8-6.5-5.8c-2-2.1-3.7-4.5-5.3-6.9c-0.8-1.2-1.5-2.5-2.2-3.8c-0.3-0.6-0.6-1.3-0.9-2c-0.2-0.6-0.5-1.4-0.4-1.9
		l-0.9-0.1c-0.6,2.3-1.1,4.7-1.5,7c-0.2,1.2-0.4,2.4-0.5,3.6c0,0.4-0.1,0.9-0.1,1.3l-0.6-0.9l-1-1.4l-0.4,1.6
		c-0.6,2.3-0.8,4.5-0.8,6.8c0,2.3,0.2,4.5,0.7,6.7c0.6,3.2,1.8,6.3,3.3,9.2L39.4,64l-2.1-1l0.5,2.2c0.5,2.2,1.3,4,2.2,5.9
		c1,1.8,2.1,3.5,3.4,5.1c1.3,1.6,2.7,3.1,4.2,4.4c0.5,0.5,1,0.9,1.5,1.3L48,81.9l-2.5-0.1l1.4,2c2.2,3.2,4.7,6,7.4,8.8
		c2.7,2.7,5.4,5.3,8.4,7.7c3,2.3,6.1,4.5,9.3,6.5c1.6,1,3.2,1.9,4.9,2.8c1.7,0.8,3.3,1.8,5.2,2.4c0.9,0.3,2,0.4,2.8,0.6
		c0.2,0,0.3,0.1,0.4,0.2c0.1,0.1,0.2,0.2,0.4,0.3l0.9,1c1.2,1.4,2.4,2.8,3.5,4.3c2.3,3,4.4,6,6.5,9.1c0.9,1.4,1.9,2.8,2.8,4.2
		c4.9,7.9,8.9,14.8,9,15l3.2,4.3l0.1-0.1L112.4,151.8z"/>
</g>
<path class="st0" d="M41.1,30.6c0,1.9,0.2,3.9,0.5,5.8c0.3,1.9,0.7,3.8,1.2,5.7c1,3.7,2.5,7.3,4.2,10.8c0.9,1.7,1.8,3.5,2.8,5.1
	c1,1.7,2.1,3.3,3.3,4.8c2.3,3.1,5.2,5.8,8.1,8.5c5.8,5.4,10.9,11.4,15.2,18.1c4.3,6.7,7.3,14,10.4,21.2l-0.2,0.1
	c-2.1-3.3-3.9-6.8-5.8-10.2c-1.9-3.4-3.9-6.8-6-10.1c-4.2-6.6-9-12.7-14.2-18.6c-5.4-5.6-11.2-11.2-15-18.3
	c-1.8-3.5-3.2-7.3-4.1-11.2c-0.8-3.9-1.2-7.9-0.6-11.8L41.1,30.6z"/>
</svg>
